<svg width="32" height="32" viewBox="0 0 32 32" fill="none" xmlns="http://www.w3.org/2000/svg">
<g clip-path="url(#clip0_169_440)">
<circle cx="16" cy="16" r="16" fill="#00640C"/>
<path d="M17.9813 22.1395H15.5007V23.1026H22.0644V22.1395H20.0228L18.9033 8.96306H20.9009V8H16.0714L12.0322 19.6224L8.12469 8H3.16347V8.96306H5.16113L4.04156 22.1395H2V23.1026H7.66369V22.1395H5.18308L6.19289 8.85363L11.5493 24L16.8178 8.85363L17.9813 22.1395Z" fill="#FC5C03"/>
<path d="M16.0714 8L15.7367 8.96306H16.7492L16.8178 8.85363L17.9813 22.1395H15.5007V23.1026H22.1303V22.1395H20.0228L19.4157 14.9936L27.1901 23.1027H30L21.5484 14.5664L27.6511 8.96312H29.6707V8.00005H23.8973V8.96312H26.2242L20.1215 14.654H19.3868L18.9033 8.96306H20.9009V8H16.0714Z" fill="#FC5C03"/>
</g>
<defs>
<clipPath id="clip0_169_440">
<rect width="32" height="32" fill="white"/>
</clipPath>
</defs>
</svg>
